<svg width="1200" height="800" viewBox="0 0 1200 800" fill="none" xmlns="http://www.w3.org/2000/svg">
  <defs>
    <linearGradient id="bg" x1="0" y1="0" x2="1200" y2="800" gradientUnits="userSpaceOnUse">
      <stop offset="0" stop-color="#07112E" />
      <stop offset="1" stop-color="#102B5C" />
    </linearGradient>
    <radialGradient id="glowA" cx="0" cy="0" r="1" gradientUnits="userSpaceOnUse" gradientTransform="translate(280 160) rotate(45) scale(480 420)">
      <stop offset="0" stop-color="#61F9D1" stop-opacity="0.55" />
      <stop offset="1" stop-color="#61F9D1" stop-opacity="0" />
    </radialGradient>
    <radialGradient id="glowB" cx="0" cy="0" r="1" gradientUnits="userSpaceOnUse" gradientTransform="translate(900 620) rotate(-25) scale(520 460)">
      <stop offset="0" stop-color="#58B8FF" stop-opacity="0.55" />
      <stop offset="1" stop-color="#58B8FF" stop-opacity="0" />
    </radialGradient>
    <linearGradient id="arc" x1="160" y1="140" x2="1080" y2="620" gradientUnits="userSpaceOnUse">
      <stop offset="0" stop-color="#66FFE3" stop-opacity="0.9" />
      <stop offset="0.5" stop-color="#5CD6FF" stop-opacity="0.7" />
      <stop offset="1" stop-color="#3C7BFF" stop-opacity="0.8" />
    </linearGradient>
    <linearGradient id="mesh" x1="420" y1="120" x2="820" y2="700" gradientUnits="userSpaceOnUse">
      <stop offset="0" stop-color="#7AFFDE" stop-opacity="0.65" />
      <stop offset="1" stop-color="#4AA6FF" stop-opacity="0.2" />
    </linearGradient>
    <filter id="softBlur" x="-40" y="-40" width="1280" height="880" filterUnits="userSpaceOnUse" color-interpolation-filters="sRGB">
      <feGaussianBlur stdDeviation="30" />
    </filter>
  </defs>
  <rect width="1200" height="800" fill="url(#bg)" />
  <ellipse cx="280" cy="160" rx="380" ry="320" fill="url(#glowA)" />
  <ellipse cx="900" cy="620" rx="400" ry="340" fill="url(#glowB)" />
  <g filter="url(#softBlur)" opacity="0.6">
    <path d="M160 520C260 360 420 260 600 240C780 220 980 300 1080 460" stroke="url(#arc)" stroke-width="68" stroke-linecap="round" />
  </g>
  <path d="M160 520C260 360 420 260 600 240C780 220 980 300 1080 460" stroke="url(#arc)" stroke-width="6" stroke-linecap="round" stroke-dasharray="12 20" opacity="0.55" />
  <path d="M220 620C340 420 540 320 760 340C940 356 1080 440 1140 520" stroke="url(#arc)" stroke-width="3" stroke-linecap="round" stroke-dasharray="4 16" opacity="0.4" />
  <path d="M240 210C390 140 540 150 720 240C860 312 990 430 1080 600" stroke="url(#arc)" stroke-width="4" stroke-linecap="round" opacity="0.45" />
  <path d="M420 190C520 130 650 120 780 190C920 264 1020 390 1080 560" stroke="#7AFFDE" stroke-opacity="0.25" stroke-width="2" stroke-linecap="round" stroke-dasharray="6 18" />
  <path d="M360 320C480 260 640 260 780 340C900 410 1020 520 1100 640" stroke="#4E9CFF" stroke-opacity="0.28" stroke-width="2" stroke-linecap="round" stroke-dasharray="10 20" />
  <path d="M420 220C340 300 360 420 460 480C560 540 720 520 820 580C900 630 960 720 980 800" stroke="url(#arc)" stroke-width="3" stroke-linecap="round" opacity="0.35" />
  <path d="M540 150C620 180 700 240 760 320" stroke="#6FF2FF" stroke-opacity="0.45" stroke-width="5" stroke-linecap="round" />
  <path d="M540 150L720 280L900 220" stroke="url(#mesh)" stroke-width="2" stroke-linecap="round" stroke-dasharray="8 12" opacity="0.55" />
  <path d="M360 420L520 320L700 420L860 360" stroke="url(#mesh)" stroke-width="2.5" stroke-linecap="round" stroke-dasharray="10 14" opacity="0.5" />
  <circle cx="540" cy="150" r="8" fill="#7AFFDE" opacity="0.8" />
  <circle cx="720" cy="280" r="8" fill="#6CE4FF" opacity="0.8" />
  <circle cx="900" cy="220" r="9" fill="#4E9CFF" opacity="0.85" />
  <circle cx="520" cy="320" r="7" fill="#7AFFDE" opacity="0.85" />
  <circle cx="700" cy="420" r="7" fill="#58C7FF" opacity="0.85" />
  <circle cx="860" cy="360" r="7" fill="#4AA6FF" opacity="0.8" />
</svg>
